<?xml version="1.0" standalone="no"?><!DOCTYPE svg PUBLIC "-//W3C//DTD SVG 1.1//EN" "http://www.w3.org/Graphics/SVG/1.1/DTD/svg11.dtd"><svg t="1596534207434" class="icon" viewBox="0 0 1024 1024" version="1.1" xmlns="http://www.w3.org/2000/svg" p-id="6534" xmlns:xlink="http://www.w3.org/1999/xlink" width="200" height="200"><defs><style type="text/css"></style></defs><path d="M933.647059 0H90.352941a60.235294 60.235294 0 0 0-60.235294 60.235294v903.529412a60.235294 60.235294 0 0 0 60.235294 60.235294h843.294118a60.235294 60.235294 0 0 0 60.235294-60.235294V60.235294a60.235294 60.235294 0 0 0-60.235294-60.235294z m0 963.764706H90.352941V60.235294h843.294118v903.529412z" p-id="6535"></path><path d="M240.941176 331.294118h542.117648a30.117647 30.117647 0 1 0 0-60.235294H240.941176a30.117647 30.117647 0 0 0 0 60.235294z m542.117648 150.588235H240.941176a30.117647 30.117647 0 0 0 0 60.235294h542.117648a30.117647 30.117647 0 1 0 0-60.235294z m0 210.823529H240.941176a30.117647 30.117647 0 1 0 0 60.235294h542.117648a30.117647 30.117647 0 1 0 0-60.235294z" fill="#3E1616" p-id="6536"></path></svg>