<?xml version="1.0" standalone="no"?><!DOCTYPE svg PUBLIC "-//W3C//DTD SVG 1.1//EN" "http://www.w3.org/Graphics/SVG/1.1/DTD/svg11.dtd"><svg t="1596534283384" class="icon" viewBox="0 0 1024 1024" version="1.1" xmlns="http://www.w3.org/2000/svg" p-id="8696" xmlns:xlink="http://www.w3.org/1999/xlink" width="200" height="200"><defs><style type="text/css"></style></defs><path d="M793.6 316.992c0-163.264-131.84-295.68-294.4-295.68-162.56 0-294.4 132.416-294.4 295.68s131.84 295.68 294.4 295.68c162.56 0 294.4-132.416 294.4-295.68z m-537.6 0a243.712 243.712 0 0 1 243.2-244.224c134.336 0 243.2 109.312 243.2 244.224a243.712 243.712 0 0 1-243.2 244.224A243.712 243.712 0 0 1 256 316.992zM0 998.272V1024h1024v-25.728c0-230.784-236.928-437.056-512-437.056-16.576 0-33.024 0.64-49.28 2.048-14.144 1.088 22.528 13.504 23.68 27.648 14.976-1.216 10.432 21.76 25.6 21.76 248.32 0 460.8 184.96 460.8 385.6l25.6-25.664H25.6l25.6 25.664c0-136.512 85.76-261.312 224.064-330.88 12.672-6.336 17.792-21.76 11.456-34.432a25.6 25.6 0 0 0-34.368-11.52C97.6 699.264 0 841.216 0 998.272z" p-id="8697"></path></svg>