<?xml version="1.0" standalone="no"?><!DOCTYPE svg PUBLIC "-//W3C//DTD SVG 1.1//EN" "http://www.w3.org/Graphics/SVG/1.1/DTD/svg11.dtd"><svg t="1596534102088" class="icon" viewBox="0 0 1024 1024" version="1.1" xmlns="http://www.w3.org/2000/svg" p-id="4468" xmlns:xlink="http://www.w3.org/1999/xlink" width="200" height="200"><defs><style type="text/css"></style></defs><path d="M887.296 150.016h-132.096C737.28 67.584 664.064 5.632 576.512 5.632H182.784C81.92 5.632 0 88.064 0 188.928v692.736c0 75.264 60.928 136.192 136.704 136.704h751.104c75.264 0 136.192-61.44 136.704-136.704V286.72c-0.512-75.776-61.44-136.704-137.216-136.704zM105.472 111.104c20.48-20.48 48.64-32.256 77.312-32.256h393.216c45.568 0 86.528 28.16 102.4 70.656H136.704c-20.992 0-41.472 4.608-60.416 14.336 4.608-19.968 14.848-37.888 29.184-52.736z m781.824 838.656H136.704c-37.888 0-68.096-30.72-68.096-68.096V286.72c0-37.888 30.72-68.096 68.096-68.096h751.104c37.888 0 68.096 30.72 68.096 68.096v111.616h-388.096c-40.448 0-73.216 32.768-73.216 73.216v212.48c0 40.448 32.768 73.216 73.216 73.216h388.096v124.416c-0.512 37.888-30.72 68.096-68.608 68.096zM955.904 471.04v212.48H604.16c-19.968 0-36.352-16.384-36.352-36.352V507.904c0-19.968 16.384-36.352 36.352-36.864h351.744z" p-id="4469"></path></svg>