<?xml version="1.0" standalone="no"?><!DOCTYPE svg PUBLIC "-//W3C//DTD SVG 1.1//EN" "http://www.w3.org/Graphics/SVG/1.1/DTD/svg11.dtd"><svg t="1596875444013" class="icon" viewBox="0 0 1024 1024" version="1.1" xmlns="http://www.w3.org/2000/svg" p-id="3336" xmlns:xlink="http://www.w3.org/1999/xlink" width="200" height="200"><defs><style type="text/css"></style></defs><path d="M925.535711 1023.99968H98.463969A98.591969 98.591969 0 0 1 0 925.535711V98.463969A98.591969 98.591969 0 0 1 98.463969 0h571.071822c10.847997 0 19.679994 8.863997 19.679994 19.679994a19.743994 19.743994 0 0 1-19.679994 19.711994H98.463969c-32.63999 0-59.071982 26.463992-59.071981 59.071981v827.071742c0 32.63999 26.463992 59.071982 59.071981 59.071981h827.071742c32.63999 0 59.071982-26.463992 59.071981-59.071981V354.463889c0-10.847997 8.863997-19.679994 19.711994-19.679994 10.815997 0 19.679994 8.831997 19.679994 19.679994v571.071822A98.591969 98.591969 0 0 1 925.535711 1023.99968z" fill="#757575" p-id="3337"></path><path d="M984.383692 29.535991c-18.591994-18.559994-43.199987-28.799991-69.567978-28.799991-26.207992 0-50.943984 10.239997-69.535978 28.799991L441.343862 433.599865a19.359994 19.359994 0 0 0-5.407998 10.079996l-27.551992 139.327957a19.775994 19.775994 0 0 0 23.263993 23.135993l138.943957-27.935992a20.287994 20.287994 0 0 0 10.079997-5.407998L984.639692 168.735947a98.271969 98.271969 0 0 0-0.224-139.199956zM556.927826 540.671831l-104.127967 20.927994 20.671993-104.479968L831.39174 99.199969l83.551974 83.583974-358.015888 357.887888zM956.799701 140.927956l-14.015996 14.015996-83.583973-83.551974 14.015995-14.047996c22.303993-22.271993 60.927981-22.527993 83.583974 0.256a58.879982 58.879982 0 0 1 0 83.327974z" fill="#757575" p-id="3338"></path><path d="M748.319766 708.927778H275.679914A19.743994 19.743994 0 0 1 255.99992 689.215785c0-10.815997 8.863997-19.679994 19.679994-19.679994h472.639852c10.815997 0 19.679994 8.863997 19.679994 19.679994a19.743994 19.743994 0 0 1-19.679994 19.711993zM748.319766 827.071742H275.679914A19.743994 19.743994 0 0 1 255.99992 807.391748c0-10.847997 8.863997-19.711994 19.679994-19.711994h472.639852c10.815997 0 19.679994 8.863997 19.679994 19.711994a19.743994 19.743994 0 0 1-19.679994 19.679994z" fill="#757575" p-id="3339"></path></svg>