<?xml version="1.0" standalone="no"?><!DOCTYPE svg PUBLIC "-//W3C//DTD SVG 1.1//EN" "http://www.w3.org/Graphics/SVG/1.1/DTD/svg11.dtd"><svg class="icon" width="200px" height="200.00px" viewBox="0 0 1024 1024" version="1.1" xmlns="http://www.w3.org/2000/svg"><path fill="#333333" d="M994.976671 266.224551C996.888636 148.744926 904.476996 2.585826 786.57249 0.03654c-133.412667-2.761727-210.316146 151.470114-212.440552 271.074144-1.699524 98.997297 52.260376 212.440552 130.013617 260.452117l-21.244055 385.15472c0 50.773292 17.632566 106.220276 100.484381 106.220276a102.821227 102.821227 0 0 0 109.619325-95.598248v-8.285182L878.98413 535.386731c79.027885-44.400075 114.505457-168.465358 116.204982-269.16218z m-163.366784 214.564958a34.202929 34.202929 0 0 0-23.793342 33.990488l15.50816 405.336573a42.48811 42.48811 0 0 1-39.513943 34.202929 33.140726 33.140726 0 0 1-30.378999-34.415369l21.244056-406.398776a34.840251 34.840251 0 0 0-22.731139-34.41537c-49.073767-18.482328-110.044206-109.831765-108.344682-206.067335 1.487084-84.976221 53.110138-203.093168 141.060527-203.730489 75.628836 0 141.060526 110.681528 139.573442 195.445307-1.699524 100.271941-44.612516 200.33144-93.261402 216.264482z m-382.392994-142.122729l-21.244055-302.302906A34.415369 34.415369 0 0 0 390.37086 4.710232 35.052691 35.052691 0 0 0 356.592812 42.52465l19.969412 273.19855-102.396346 1.487084a33.778048 33.778048 0 0 0 0-5.523455l-1.911965-270.861703A34.62781 34.62781 0 0 0 237.201222 6.834637 35.052691 35.052691 0 0 0 202.148531 42.52465l2.549287 270.011942a34.62781 34.62781 0 0 0 0 5.523454L102.301472 318.697368l15.29572-273.410991A34.415369 34.415369 0 0 0 84.881347 9.171484 34.840251 34.840251 0 0 0 47.491809 42.52465L30.709006 344.402674A33.990488 33.990488 0 0 0 29.221922 361.185478v8.072741a177.17542 177.17542 0 0 0 127.464331 174.838574l-12.533992 361.148938a116.204982 116.204982 0 0 0 32.503404 86.675746A95.385808 95.385808 0 0 0 245.061523 1019.751189a96.448011 96.448011 0 0 0 68.830739-31.016321 117.479625 117.479625 0 0 0 31.01632-87.313066l-18.482328-361.148939A157.84333 157.84333 0 0 0 406.091461 488.649809a195.445308 195.445308 0 0 0 44.187635-129.163855v-5.948336a33.990488 33.990488 0 0 0 0-5.523454 33.565607 33.565607 0 0 0-1.487084-9.772266z m-158.905533 138.298799a35.690013 35.690013 0 0 0-25.280425 11.046909 34.62781 34.62781 0 0 0-9.559825 25.492866l19.969412 391.527937a49.286208 49.286208 0 0 1-12.533993 36.539775 26.130188 26.130188 0 0 1-18.482328 8.710062 25.705307 25.705307 0 0 1-18.269887-8.285181 48.861327 48.861327 0 0 1-12.746433-36.114894l13.596195-391.952818A34.202929 34.202929 0 0 0 217.01937 488.649809a35.265132 35.265132 0 0 0-25.492866-10.197146c-45.037397 0-82.851815-39.301502-90.712116-90.499675l277.872242-4.036371A121.728436 121.728436 0 0 1 351.91912 446.161699a83.276696 83.276696 0 0 1-62.457522 31.866083z" /></svg>