<?xml version="1.0" standalone="no"?><!DOCTYPE svg PUBLIC "-//W3C//DTD SVG 1.1//EN" "http://www.w3.org/Graphics/SVG/1.1/DTD/svg11.dtd"><svg class="icon" width="200px" height="200.00px" viewBox="0 0 1024 1024" version="1.1" xmlns="http://www.w3.org/2000/svg"><path fill="#333333" d="M127.32 340.9l-58.4 567.57c-2.75 26.75 17.72 49.21 44.54 49.21h800.28c26.82 0 47.28-22.63 44.54-49.21L899.87 340.9c-2.5-24.28-23.29-42.95-47.66-42.95H699.83v-45.88c0-101.84-82.66-184.26-184.73-184.26-102.04 0-184.73 82.5-184.73 184.26l0.1 45.88H174.98c-24.26 0.01-45.17 18.84-47.66 42.95z m264.63 18.43V252.08c0-67.88 55.13-122.89 123.15-122.89 68.06 0 123.15 54.94 123.15 122.89v107.25h213.96c-7.18 0-12.87-5.11-13.6-12.16l58.41 567.57c-0.98-9.57 7.01-18.42 16.71-18.42H113.46c9.58 0 17.69 8.9 16.71 18.42l58.41-567.57c-0.74 7.18-6.28 12.16-13.6 12.16h216.97z m246.3 0v137.93c0 16.95 13.78 30.68 30.79 30.68 17 0 30.79-13.74 30.79-30.68v-199.3H391.84v61.37h246.41z m-246.3 0h-61.58v137.93c0 16.95 13.78 30.68 30.79 30.68 17 0 30.79-13.74 30.79-30.68V359.33z m0 0" /></svg>