<?xml version="1.0" standalone="no"?><!DOCTYPE svg PUBLIC "-//W3C//DTD SVG 1.1//EN" "http://www.w3.org/Graphics/SVG/1.1/DTD/svg11.dtd"><svg class="icon" width="200px" height="200.00px" viewBox="0 0 1024 1024" version="1.1" xmlns="http://www.w3.org/2000/svg"><path fill="#333333" d="M486.912 615.936l0.512 52.224h-112.64c-14.336 0-26.112 11.776-26.112 26.112s11.776 26.112 26.112 26.112h112.64v112.64c0 14.336 11.776 26.112 26.112 26.112s26.112-11.776 26.112-26.112v-112.64h112.64c14.336 0 26.112-11.776 26.112-26.112s-11.776-26.112-26.112-26.112h-112.64V615.936h112.64c14.336 0 26.112-11.776 26.112-26.112S666.624 563.712 652.288 563.712H541.696l94.208-94.208 1.536-1.536c9.728-10.752 9.216-27.136-1.536-36.864-10.752-9.728-27.136-9.216-36.864 1.536L513.536 518.656 428.032 432.64c-10.24-9.216-25.6-9.216-35.84 0-10.752 9.728-11.264 26.112-1.536 36.864L484.864 563.712H374.272C359.936 563.712 348.16 575.488 348.16 589.824s11.776 26.112 26.112 26.112h112.64zM320 199.68l-2.56 1.024C309.76 209.408 249.344 267.776 230.4 287.232c-111.616 115.2-168.96 215.552-168.96 340.992 0 221.696 196.096 395.264 450.56 395.264s450.56-173.568 450.56-395.264c0-128-57.344-227.84-169.984-341.504-16.896-17.92-75.776-74.752-86.528-85.504l-1.024-1.024L747.52 86.016c23.04-41.984-9.216-79.872-56.32-67.072l-53.76 14.848c-12.8 2.56-26.624 1.024-38.912-3.584l-40.96-19.968c-28.672-12.8-61.952-12.8-90.624 0l-41.472 19.968c-12.288 4.608-25.6 6.144-38.912 3.584l-52.736-15.36c-47.104-13.312-78.848 25.6-56.32 67.072L320 199.68z m46.592 23.552H660.48c1.536 3.072 4.096 5.632 6.656 7.68 11.776 12.288 72.704 71.168 91.136 89.6C864.768 428.032 916.48 517.632 916.48 629.76c0 192-173.056 344.064-402.944 344.064s-402.944-152.064-402.944-344.064c0-109.056 52.224-199.68 159.232-308.736C287.744 301.568 351.744 240.128 360.96 230.912c2.048-2.56 4.096-5.12 5.632-7.68zM686.08 76.288l-28.16 97.28H369.152l-28.672-97.28 13.312 3.584c29.184 7.168 75.264 9.728 102.912-2.56l41.472-19.968c9.728-3.584 20.48-3.584 30.208 0l41.472 19.968c27.648 11.776 73.728 9.728 102.912 2.56l13.312-3.584z" /></svg>