<?xml version="1.0" standalone="no"?><!DOCTYPE svg PUBLIC "-//W3C//DTD SVG 1.1//EN" "http://www.w3.org/Graphics/SVG/1.1/DTD/svg11.dtd"><svg class="icon" width="200px" height="200.00px" viewBox="0 0 1024 1024" version="1.1" xmlns="http://www.w3.org/2000/svg"><path fill="#333333" d="M890.547892 908.841514h-28.03546v42.039351a42.067027 42.067027 0 0 1-84.078702 0v-42.067027H245.898378v42.067027a42.067027 42.067027 0 0 1-84.106378 0v-42.067027H133.784216A84.106378 84.106378 0 0 1 49.677838 824.735135V96.034595A84.078703 84.078703 0 0 1 133.784216 11.928216h756.763676a84.078703 84.078703 0 0 1 84.078703 84.078703V824.735135a84.106378 84.106378 0 0 1-84.078703 84.106379zM918.555676 124.042378a56.070919 56.070919 0 0 0-56.070919-56.070919H161.792a56.070919 56.070919 0 0 0-56.043243 56.070919v280.271568h812.834594V124.042378z m0 336.342487H105.721081v336.342486c0 30.941405 25.101838 56.043243 56.043243 56.043244h700.748108a56.070919 56.070919 0 0 0 56.043244-56.043244V460.384865z m-126.14573 224.228324a42.067027 42.067027 0 1 1 0.027676-84.134054 42.067027 42.067027 0 0 1 0 84.134054z m-560.570811 0a42.067027 42.067027 0 1 1 0.027676-84.134054 42.067027 42.067027 0 0 1 0 84.134054z" /></svg>