<?xml version="1.0" standalone="no"?><!DOCTYPE svg PUBLIC "-//W3C//DTD SVG 1.1//EN" "http://www.w3.org/Graphics/SVG/1.1/DTD/svg11.dtd"><svg class="icon" width="200px" height="200.00px" viewBox="0 0 1024 1024" version="1.1" xmlns="http://www.w3.org/2000/svg"><path fill="#333333" d="M994.013736 660.507827h-62.860848c30.615972-45.991829 31.097239-108.112267-3.615671-155.029609a134.58194 134.58194 0 0 0-14.647787-16.733276 121.340933 121.340933 0 0 0-13.401429-176.044926 110.024994 110.024994 0 0 0 19.744279-151.031393 110.740724 110.740724 0 0 0-91.675155-44.301226 123.537484 123.537484 0 0 0-239.559803-35.786505 110.518601 110.518601 0 0 0-100.60944 15.523939A110.024994 110.024994 0 0 0 462.053504 247.297092a121.328593 121.328593 0 0 0-64.316988 164.420482 133.940251 133.940251 0 0 0-38.254541 29.246213c-3.936516-92.242803-24.680349-153.931334-63.169352-188.187658l30.332149-96.203998c0.222123-0.666369 0.394886-1.357419 0.555308-2.048469 3.998216-18.177077-0.308504-36.341813-11.501043-48.595606a41.228522 41.228522 0 0 0-36.070329-13.364409l-28.555163 3.628011v-0.086381a43.91868 43.91868 0 0 0-49.422398-41.956592l-74.584014 9.489594a43.90634 43.90634 0 0 0-37.353707 52.964028 0.555308 0.555308 0 0 0 0 0.135741l-28.567503 3.615672a41.327244 41.327244 0 0 0-31.566166 21.95317c-7.77431 14.672467-7.404105 33.31847 1.011894 49.928345a19.85534 19.85534 0 0 0 1.061255 1.875706l53.457635 85.480387c-30.023644 44.733132-33.787397 113.529603-11.377641 210.30125l39.488558 170.615249h-83.419578A23.828876 23.828876 0 0 0 5.960663 684.349044v164.420482c0 96.586544 78.569889 175.230474 175.230475 175.230474h661.556742c96.586544 0 175.230474-78.58223 175.230474-175.230474V684.349044a23.841217 23.841217 0 0 0-23.964618-23.841217zM407.164409 461.74464a86.171437 86.171437 0 0 1 31.775948-14.709487 23.828876 23.828876 0 0 0 13.734614-37.390728l-4.479483-6.071366a73.498078 73.498078 0 0 1 55.752907-117.231656 23.841217 23.841217 0 0 0 18.115376-37.995396l-19.324713-26.124149a62.33022 62.33022 0 0 1 12.994204-86.813126 62.502983 62.502983 0 0 1 74.324869 0.419566 23.841217 23.841217 0 0 0 37.909016-15.523939l1.234017-7.984093a75.830371 75.830371 0 1 1 149.982478 22.422097l-1.234017 7.996433a23.841217 23.841217 0 0 0 31.714247 25.914366 62.540003 62.540003 0 0 1 71.202806 21.348501 62.33022 62.33022 0 0 1-12.981863 86.800786l-26.111809 19.324713a23.841217 23.841217 0 0 0 6.170087 41.635748 73.510418 73.510418 0 0 1 19.003868 128.424193l-6.071365 4.491824a23.853557 23.853557 0 0 0 2.184211 39.784721 86.060375 86.060375 0 0 1 26.087128 23.34761c28.616864 38.686446 20.435329 93.439799-17.843892 121.760499l-6.947518 4.93607H699.231653l101.806438-75.275063a23.851089 23.851089 0 1 0-28.382401-38.340921l-121.131151 89.602005 20.299587-135.680216L795.731816 409.113797a23.851089 23.851089 0 1 0-28.382401-38.340921l-85.554428 63.305094 19.657897-131.484557 74.398911-55.037177a23.856025 23.856025 0 0 0-28.382401-38.353262l-36.070329 26.691797 12.883142-86.085056a23.841217 23.841217 0 1 0-47.151806-7.046239l-12.821441 86.072715-26.679457-36.057989a23.851089 23.851089 0 0 0-38.340921 28.382401l55.049517 74.398911-19.670238 131.447536-63.292753-85.554428a23.851089 23.851089 0 0 0-38.340922 28.3824l91.650474 123.90769L604.459115 629.410588l-89.676047-121.143491a23.851089 23.851089 0 1 0-38.340921 28.382401l91.625794 123.870669h-119.909473c-29.75216-38.587725-57.073306-73.905304-59.232837-76.718863a87.368434 87.368434 0 0 1 18.238778-122.056664z m-19.238332 198.763187h-22.755281l-0.777431-30.46789c6.305829 8.169195 14.462684 18.707704 23.532712 30.46789zM249.3089 144.515781l31.615526-3.985877a11.760186 11.760186 0 0 1-0.148082 2.998663l-26.90158 85.147202c-2.542076-0.814452-5.047131-1.739965-7.687928-2.406334z m-46.115232-42.48722l-4.578204 120.329039c-4.380762 0.271484-8.786204 0.592328-13.327388 1.172316s-8.884925 1.3821-13.191647 2.208892l-34.552488-115.368289z m-130.386281 67.870958a14.1295 14.1295 0 0 1-0.900832-2.87526l31.640206-4.022897 23.446331 78.360106c-2.381654 1.308058-4.565864 2.81356-6.836456 4.24502z m75.71931 431.412492l83.444258-10.61255a23.841217 23.841217 0 1 0-6.009665-47.299888l-88.244586 11.217219-8.021113-34.552488 53.963582-6.935178a23.841217 23.841217 0 1 0-6.022005-47.299888l-58.665189 7.465805q-4.035237-18.201757-6.725395-34.774611l109.395645-13.907376a23.841217 23.841217 0 1 0-6.009665-47.299888l-108.34673 13.722274c-1.43146-37.723913 4.590545-66.5629 18.140056-86.023355 13.290368-19.077909 34.836312-30.270447 65.884191-34.219303a149.599933 149.599933 0 0 1 18.510261-1.234018c22.138273 0 39.858763 5.910943 53.79082 17.880913 30.122365 25.852665 46.460756 82.12386 48.632626 167.271062l5.219894 205.797086H162.23663z m-94.8836 178.562322h916.529422v-71.696413H53.643097z m789.043082 196.369193H181.191138a127.634422 127.634422 0 0 1-127.48634-127.474v-21.21276h916.467721v21.21276a127.634422 127.634422 0 0 1-127.48634 127.474z" /></svg>